<svg width="64" height="64" viewBox="0 0 64 64" fill="none" xmlns="http://www.w3.org/2000/svg">
<g filter="url(#filter0_d_24_13)">
<path fill-rule="evenodd" clip-rule="evenodd" d="M42.0001 32C42.0001 37.52 37.5101 42 32.0001 42L31.7204 41.9962C26.3295 41.8478 22.0001 37.4264 22.0001 32C22.0001 26.49 26.4801 22 32.0001 22C37.5101 22 42.0001 26.49 42.0001 32ZM30.0201 28C29.7301 28.3 29.7301 28.77 30.0301 29.06L32.9801 32L30.0301 34.94C29.7301 35.23 29.7301 35.71 30.0201 36C30.3201 36.3 30.7901 36.3 31.0801 36L34.5701 32.53C34.7101 32.39 34.7901 32.2 34.7901 32C34.7901 31.8 34.7101 31.61 34.5701 31.47L31.0801 28C30.9401 27.85 30.7501 27.78 30.5601 27.78C30.3601 27.78 30.1701 27.85 30.0201 28Z" fill="#69B99D"/>
</g>
<defs>
<filter id="filter0_d_24_13" x="0" y="0" width="64" height="64" filterUnits="userSpaceOnUse" color-interpolation-filters="sRGB">
<feFlood flood-opacity="0" result="BackgroundImageFix"/>
<feColorMatrix in="SourceAlpha" type="matrix" values="0 0 0 0 0 0 0 0 0 0 0 0 0 0 0 0 0 0 127 0" result="hardAlpha"/>
<feOffset/>
<feGaussianBlur stdDeviation="10"/>
<feColorMatrix type="matrix" values="0 0 0 0 0.411765 0 0 0 0 0.72549 0 0 0 0 0.615686 0 0 0 0.58 0"/>
<feBlend mode="normal" in2="BackgroundImageFix" result="effect1_dropShadow_24_13"/>
<feBlend mode="normal" in="SourceGraphic" in2="effect1_dropShadow_24_13" result="shape"/>
</filter>
</defs>
</svg>
