<svg width="46" height="46" viewBox="0 0 46 46" fill="none" xmlns="http://www.w3.org/2000/svg">
<path fill-rule="evenodd" clip-rule="evenodd" d="M23.7343 0.971741C24.0936 0.649225 24.5689 0.48017 25.0554 0.501856C35.3398 0.809723 43.9348 8.27555 45.4926 18.2539C45.5024 18.3135 45.5024 18.3743 45.4926 18.4338C45.5261 18.906 45.3665 19.3718 45.0491 19.7282C44.7318 20.0846 44.2827 20.3022 43.8013 20.333L26.5225 21.4725C25.9511 21.5231 25.3844 21.3351 24.9616 20.9546C24.5389 20.574 24.2992 20.0363 24.3015 19.4734L23.1401 2.50096V2.22109C23.1612 1.74375 23.375 1.29426 23.7343 0.971741ZM22.5492 25.9106L37.5256 24.951L37.6275 24.991C38.2706 25.0015 38.8831 25.2623 39.3302 25.7159C39.7773 26.1696 40.0223 26.7789 40.0114 27.4099C39.4213 36.0096 33.1164 43.195 24.5362 45.0461C15.9561 46.8972 7.16039 42.9698 2.94751 35.4063C1.70874 33.2279 0.925931 30.8287 0.645021 28.3495C0.536071 27.6148 0.488368 26.8727 0.502389 26.1305C0.530785 16.986 7.04137 9.09297 16.1512 7.15895C17.254 6.95253 18.3596 7.50315 18.8408 8.49835C18.9606 8.67894 19.0564 8.87375 19.126 9.07809C19.2968 11.7141 19.474 14.3252 19.6503 16.9253C19.7896 18.9787 19.9285 21.0253 20.0633 23.0718C20.0564 23.5539 20.1322 24.0338 20.2875 24.4912C20.6531 25.3912 21.5631 25.9623 22.5492 25.9106Z" fill="#69B99D"/>
</svg>
