<svg width="54" height="54" viewBox="0 0 54 54" fill="none" xmlns="http://www.w3.org/2000/svg">
<g id="Iconly/Bold/Heart">
<g id="Heart">
<path id="Heart_2" fill-rule="evenodd" clip-rule="evenodd" d="M35.662 5.62658C37.0818 5.62658 38.4993 5.82683 39.847 6.27908C48.1518 8.97908 51.1443 18.0916 48.6445 26.0566C47.227 30.1268 44.9095 33.8416 41.8743 36.8768C37.5295 41.0843 32.7618 44.8194 27.6295 48.0368L27.067 48.3766L26.482 48.0144C21.3318 44.8194 16.537 41.0844 12.1518 36.8543C9.1368 33.8191 6.81705 30.1268 5.37705 26.0566C2.83455 18.0916 5.82705 8.97908 14.2218 6.23183C14.8743 6.00683 15.547 5.84933 16.222 5.76158H16.492C17.1243 5.66933 17.752 5.62658 18.382 5.62658H18.6295C20.047 5.66933 21.4195 5.91683 22.7493 6.36908H22.882C22.972 6.41183 23.0395 6.45908 23.0845 6.50183C23.5818 6.66158 24.052 6.84158 24.502 7.08908L25.357 7.47158C25.5636 7.58177 25.7955 7.75013 25.996 7.89564C26.1229 7.98783 26.2373 8.07085 26.3245 8.12408C26.3613 8.14574 26.3986 8.16753 26.4362 8.18949C26.6291 8.30211 26.8301 8.41942 26.9995 8.54933C29.4993 6.63908 32.5345 5.60408 35.662 5.62658ZM41.6471 21.8266C42.5696 21.8018 43.357 21.0616 43.4245 20.1143V19.8466C43.492 16.6943 41.5818 13.8391 38.6771 12.7366C37.7546 12.4193 36.7421 12.9166 36.4046 13.8616C36.0896 14.8066 36.5846 15.8416 37.5296 16.1768C38.9718 16.7168 39.9371 18.1366 39.9371 19.7093V19.7791C39.8943 20.2943 40.0496 20.7916 40.3646 21.1741C40.6796 21.5566 41.1521 21.7793 41.6471 21.8266Z" fill="#69B99D"/>
</g>
</g>
</svg>
