<svg width="40" height="40" viewBox="0 0 40 40" fill="none" xmlns="http://www.w3.org/2000/svg">
<circle cx="20" cy="20" r="20" fill="#F8F9F9"/>
<path d="M20 17.6787C18.7179 17.6787 17.6786 18.7181 17.6786 20.0002C17.6786 21.2823 18.7179 22.3216 20 22.3216C21.2821 22.3216 22.3215 21.2823 22.3215 20.0002C22.3215 18.7181 21.2821 17.6787 20 17.6787Z" fill="#29CDB5"/>
<path fill-rule="evenodd" clip-rule="evenodd" d="M16.264 13.6298C18.7269 13.3545 21.2732 13.3545 23.7361 13.6298C25.0921 13.7813 26.1858 14.8498 26.345 16.2105C26.6394 18.7284 26.6394 21.272 26.345 23.7898C26.1858 25.1506 25.0921 26.219 23.7361 26.3705C21.2732 26.6458 18.7269 26.6458 16.264 26.3705C14.908 26.219 13.8143 25.1506 13.6551 23.7898C13.3606 21.272 13.3606 18.7284 13.6551 16.2105C13.8143 14.8498 14.908 13.7813 16.264 13.6298ZM23.5715 15.7145C23.177 15.7145 22.8572 16.0343 22.8572 16.4287C22.8572 16.8232 23.177 17.143 23.5715 17.143C23.966 17.143 24.2857 16.8232 24.2857 16.4287C24.2857 16.0343 23.966 15.7145 23.5715 15.7145ZM16.6072 20.0002C16.6072 18.1263 18.1262 16.6073 20 16.6073C21.8739 16.6073 23.3929 18.1263 23.3929 20.0002C23.3929 21.874 21.8739 23.393 20 23.393C18.1262 23.393 16.6072 21.874 16.6072 20.0002Z" fill="#29CDB5"/>
</svg>
