<svg width="54" height="54" viewBox="0 0 54 54" fill="none" xmlns="http://www.w3.org/2000/svg">
<g id="Iconly/Bold/Location">
<g id="Location">
<path id="Location_2" fill-rule="evenodd" clip-rule="evenodd" d="M7.875 23.215C7.875 12.8653 16.5237 4.5 26.9853 4.5C37.4763 4.5 46.125 12.8653 46.125 23.215C46.125 28.4303 44.2283 33.2722 41.1064 37.376C37.6623 41.9029 33.4174 45.847 28.6392 48.943C27.5457 49.6584 26.5587 49.7124 25.3585 48.943C20.5532 45.847 16.3082 41.9029 12.8936 37.376C9.76946 33.2722 7.875 28.4303 7.875 23.215ZM20.687 23.7977C20.687 27.2649 23.5162 29.9918 26.9852 29.9918C30.4565 29.9918 33.313 27.2649 33.313 23.7977C33.313 20.3576 30.4565 17.4979 26.9852 17.4979C23.5162 17.4979 20.687 20.3576 20.687 23.7977Z" fill="#69B99D"/>
</g>
</g>
</svg>
