<svg width="54" height="54" viewBox="0 0 54 54" fill="none" xmlns="http://www.w3.org/2000/svg">
<g id="Iconly/Bold/Shield Done">
<g id="Shield Done">
<path id="Shield Done_2" fill-rule="evenodd" clip-rule="evenodd" d="M26.3882 49.3057C26.6374 49.4359 26.916 49.5021 27.1946 49.4999C27.4732 49.4977 27.7496 49.4293 28.001 49.2969L36.0287 45.0055C38.3052 43.792 40.0879 42.4351 41.4787 40.8554C44.5027 37.4135 46.154 33.0206 46.1246 28.4909L46.0294 13.5495C46.0204 11.8285 44.89 10.2929 43.2184 9.73466L28.2842 4.72402C27.3849 4.41954 26.3995 4.42616 25.5161 4.73946L10.6386 9.92882C8.97592 10.5091 7.86599 12.0558 7.87506 13.7789L7.97019 28.7094C7.99964 33.2456 9.70757 37.6186 12.7814 41.0253C14.1858 42.583 15.9843 43.92 18.2857 45.1137L26.3882 49.3057ZM24.263 31.7451C24.5982 32.0672 25.0331 32.2261 25.4681 32.2217C25.903 32.2195 26.3356 32.0562 26.6663 31.7297L35.4393 23.0807C36.0985 22.4298 36.0917 21.384 35.4257 20.742C34.7575 20.0999 33.6815 20.1043 33.0224 20.7552L25.4431 28.226L22.3399 25.243C21.6717 24.6009 20.598 24.6075 19.9365 25.2584C19.2774 25.9093 19.2842 26.9551 19.9524 27.5971L24.263 31.7451Z" fill="#69B99D"/>
</g>
</g>
</svg>
