<svg width="54" height="54" viewBox="0 0 54 54" fill="none" xmlns="http://www.w3.org/2000/svg">
<g id="Iconly/Bold/Star">
<g id="Star">
<path id="Star_2" d="M40.3166 32.2202C39.7339 32.785 39.4661 33.6017 39.5989 34.4027L41.5991 45.4727C41.7679 46.411 41.3719 47.3605 40.5866 47.9027C39.8171 48.4652 38.7934 48.5327 37.9541 48.0827L27.9889 42.8852C27.6424 42.7007 27.2576 42.6017 26.8639 42.5905H26.2541C26.0426 42.622 25.8356 42.6895 25.6466 42.793L15.6791 48.0152C15.1864 48.2627 14.6284 48.3505 14.0816 48.2627C12.7496 48.0107 11.8609 46.7417 12.0791 45.403L14.0816 34.333C14.2144 33.5252 13.9466 32.704 13.3639 32.1302L5.23912 24.2552C4.55962 23.596 4.32337 22.606 4.63387 21.7127C4.93537 20.8217 5.70487 20.1715 6.63412 20.0252L17.8166 18.403C18.6671 18.3152 19.4141 17.7977 19.7966 17.0327L24.7241 6.93024C24.8411 6.70524 24.9919 6.49824 25.1741 6.32274L25.3766 6.16524C25.4824 6.04824 25.6039 5.95149 25.7389 5.87274L25.9841 5.78274L26.3666 5.62524H27.3139C28.1599 5.71299 28.9046 6.21924 29.2939 6.97524L34.2866 17.0327C34.6466 17.7685 35.3464 18.2792 36.1541 18.403L47.3366 20.0252C48.2816 20.1602 49.0714 20.8127 49.3841 21.7127C49.6789 22.615 49.4246 23.605 48.7316 24.2552L40.3166 32.2202Z" fill="#69B99D"/>
</g>
</g>
</svg>
