<svg width="18" height="18" viewBox="0 0 18 18" fill="none" xmlns="http://www.w3.org/2000/svg">
<g clip-path="url(#clip0_41_624)">
<path d="M13.1699 15.7499C13.05 15.7504 12.9317 15.7221 12.8249 15.6674L8.99995 13.6649L5.17494 15.6674C5.05074 15.7327 4.9107 15.7619 4.77075 15.7516C4.6308 15.7412 4.49655 15.6919 4.38327 15.6091C4.26998 15.5262 4.1822 15.4133 4.12991 15.2831C4.07761 15.1529 4.0629 15.0106 4.08744 14.8724L4.83744 10.6499L1.74744 7.64991C1.65104 7.5537 1.58265 7.43306 1.54961 7.30093C1.51658 7.1688 1.52015 7.03016 1.55994 6.89991C1.60341 6.76661 1.68338 6.64817 1.79076 6.55803C1.89814 6.46788 2.02864 6.40964 2.16744 6.38991L6.44244 5.76741L8.32495 1.91991C8.38636 1.79311 8.48225 1.68617 8.60163 1.61134C8.72101 1.53651 8.85905 1.49683 8.99995 1.49683C9.14084 1.49683 9.27888 1.53651 9.39826 1.61134C9.51764 1.68617 9.61353 1.79311 9.67494 1.91991L11.5799 5.75991L15.8549 6.38241C15.9938 6.40214 16.1243 6.46038 16.2316 6.55053C16.339 6.64067 16.419 6.75911 16.4624 6.89241C16.5022 7.02266 16.5058 7.1613 16.4728 7.29343C16.4397 7.42556 16.3714 7.5462 16.2749 7.64241L13.1849 10.6424L13.9349 14.8649C13.9617 15.0055 13.9477 15.1508 13.8945 15.2837C13.8414 15.4166 13.7513 15.5316 13.6349 15.6149C13.4991 15.7101 13.3356 15.7576 13.1699 15.7499Z" fill="#69B99D"/>
</g>
<defs>
<clipPath id="clip0_41_624">
<rect width="18" height="18" fill="white"/>
</clipPath>
</defs>
</svg>
