<svg width="54" height="54" viewBox="0 0 54 54" fill="none" xmlns="http://www.w3.org/2000/svg">
<g id="Iconly/Bold/Ticket Star">
<g id="Ticket Star">
<path id="Ticket Star_2" fill-rule="evenodd" clip-rule="evenodd" d="M44.4622 27.0022C44.4622 28.8326 45.9653 30.3219 47.8125 30.3219C48.744 30.3219 49.5 31.071 49.5 31.9939V38.0157C49.5 43.1077 45.3195 47.25 40.1805 47.25H13.8218C8.68275 47.25 4.5 43.1077 4.5 38.0157V31.9939C4.5 31.071 5.256 30.3219 6.1875 30.3219C8.037 30.3219 9.54 28.8326 9.54 27.0022C9.54 25.2187 8.09775 23.8766 6.1875 23.8766C5.73975 23.8766 5.31225 23.7004 4.995 23.3861C4.67775 23.0717 4.5 22.6459 4.5 22.2045L4.5045 15.9866C4.5045 10.8945 8.685 6.75 13.824 6.75H40.176C45.315 6.75 49.4977 10.8945 49.4977 15.9866L49.5 22.0105C49.5 22.4519 49.3223 22.88 49.0073 23.1921C48.69 23.5065 48.2625 23.6826 47.8125 23.6826C45.9653 23.6826 44.4622 25.1719 44.4622 27.0022ZM32.0669 28.4582L34.7197 25.8988C35.1809 25.4573 35.3407 24.8063 35.1404 24.2044C34.9424 23.6024 34.4249 23.1744 33.7994 23.0874L30.1342 22.5568L28.4939 19.2662C28.2127 18.6999 27.6412 18.3477 27.0044 18.3454H26.9999C26.3654 18.3454 25.7939 18.6977 25.5082 19.264L23.8679 22.5568L20.2094 23.0852C19.5772 23.1744 19.0597 23.6024 18.8594 24.2044C18.6614 24.8063 18.8212 25.4573 19.2802 25.8988L21.9329 28.4582L21.3074 32.0765C21.1994 32.7008 21.4537 33.3206 21.9712 33.6929C22.2637 33.9002 22.6034 34.0072 22.9477 34.0072C23.2109 34.0072 23.4764 33.9426 23.7194 33.8155L26.9999 32.1078L30.2737 33.811C30.8407 34.112 31.5134 34.0652 32.0287 33.6907C32.5484 33.3206 32.8027 32.7008 32.6947 32.0765L32.0669 28.4582Z" fill="#69B99D"/>
</g>
</g>
</svg>
