<svg width="40" height="40" viewBox="0 0 40 40" fill="none" xmlns="http://www.w3.org/2000/svg">
<circle cx="20" cy="20" r="20" fill="#F8F9F9"/>
<path fill-rule="evenodd" clip-rule="evenodd" d="M16.4206 14.922C18.8033 14.7356 21.1968 14.7356 23.5794 14.922L25.1799 15.0472C26.0714 15.117 26.8007 15.7851 26.9481 16.6671C27.3168 18.8739 27.3168 21.1266 26.9481 23.3334C26.8007 24.2153 26.0714 24.8835 25.1799 24.9532L23.5794 25.0784C21.1968 25.2648 18.8033 25.2648 16.4206 25.0784L14.8201 24.9532C13.9287 24.8835 13.1994 24.2153 13.052 23.3334C12.6833 21.1266 12.6833 18.8739 13.052 16.6671C13.1994 15.7851 13.9287 15.117 14.8201 15.0472L16.4206 14.922ZM18.5714 21.7646V18.2358C18.5714 18.0693 18.7531 17.9664 18.896 18.0521L21.8366 19.8165C21.9753 19.8997 21.9753 20.1008 21.8366 20.184L18.896 21.9484C18.7531 22.0341 18.5714 21.9312 18.5714 21.7646Z" fill="#29CDB5"/>
</svg>
